<svg height="512" viewBox="0 0 512 512" width="512" xmlns="http://www.w3.org/2000/svg"><g id="Flat"><rect fill="#37a0c5" height="320" rx="32" width="192" x="296" y="24"/><path d="m328 320a8.00917 8.00917 0 0 1 -8-8v-256a8.00917 8.00917 0 0 1 8-8h16l24 24h48l24-24h16a8.00917 8.00917 0 0 1 8 8v256a8.00917 8.00917 0 0 1 -8 8z" fill="#8ccee9"/><path d="m376 40h16v16h-16z" fill="#2d80b5"/><circle cx="408" cy="48" fill="#2d80b5" r="8"/><path d="m384 152-8 8v4.6863a27.31368 27.31368 0 0 0 8 19.3137 27.31368 27.31368 0 0 0 19.31369 8h4.68631l8-8 24 24-16 16h-11.71576a68.28421 68.28421 0 0 1 -48.28424-20 68.28421 68.28421 0 0 1 -20-48.28422v-11.71578l16-16z" fill="#90c937"/><path d="m224 288h-200v-160h176v136z" fill="#f0de9c"/><g fill="#f0c033"><path d="m112 152h32v16h-32z"/><path d="m80 152h16v16h-16z"/><path d="m96 184h32v16h-32z"/><path d="m48 184h32v16h-32z"/><path d="m112 216h64v16h-64z"/><path d="m48 216h48v16h-48z"/><path d="m96 248h56v16h-56z"/><path d="m48 248h32v16h-32z"/><path d="m160 152h16v16h-16z"/><path d="m144 184h32v16h-32z"/></g><path d="m376 392.98v14.35a42.14134 42.14134 0 0 1 -3.41992 16.64l-11.13008 25.97a116.86688 116.86688 0 0 0 -9.17 38.06h-184.28v-80h32l28.55005-34.26a85.50358 85.50358 0 0 1 27.44995-21.74h88a42.2401 42.2401 0 0 1 32 40.98z" fill="#8ccee9"/><path d="m323.31348 480h-147.31348v-16h144l16-16 11.31445 11.31348-18.34375 18.34326a8.00072 8.00072 0 0 1 -5.65722 2.34326z" fill="#37a0c5"/><path d="m192 464h-16a56.06322 56.06322 0 0 1 56-56h57.373l19.3125-19.31348 11.3145 11.31348-24 24h-64a40.04552 40.04552 0 0 0 -40 40z" fill="#37a0c5"/><path d="m326.333 361.667-22.333 22.333h-16l-8-16 24-24z" fill="#e64042"/><path d="m284.785 342.405-28.785 9.595 16 24 32-32 24 32 24-24-16-16v8z" fill="#c6d6e2"/><path d="m232.84473 347.57764-8-16a7.99983 7.99983 0 0 1 1.498-9.23438l40-40 11.31446 11.31348-35.92285 35.92285 5.42089 10.84277z" fill="#2f4054"/><path d="m160 488h-100a12 12 0 0 1 -12-12 12 12 0 0 1 12-12h100z" fill="#a8b4be"/><rect fill="#c6d6e2" height="24" rx="12" width="136" x="144" y="464"/><path d="m192.19449 443.70567-28.51268-74.133a14.93352 14.93352 0 0 0 -13.93813-9.57267h-104a14.93351 14.93351 0 0 0 -13.93813 20.29433l28.51268 74.133a14.93352 14.93352 0 0 0 13.93809 9.57267h104a14.93351 14.93351 0 0 0 13.93817-20.29433z" fill="#c6d6e2"/><path d="m164.31819 454.4273-28.51268-74.133a14.93351 14.93351 0 0 1 13.93813-20.2943 14.93352 14.93352 0 0 1 13.93813 9.5727l28.51268 74.133a14.93351 14.93351 0 0 1 -13.93809 20.2943 14.93352 14.93352 0 0 1 -13.93817-9.5727z" fill="#a8b4be"/><path d="m352 288v12.69a27.3187 27.3187 0 0 1 -8 19.31 27.31736 27.31736 0 0 0 -8 19.31v4.69h-40a40.00174 40.00174 0 0 1 -40-40v-32l45.40991-32.43 10.59009-7.57 24 33.6z" fill="#f6d0b1"/><path d="m352 288v12.69a27.3187 27.3187 0 0 1 -8 19.31 27.31736 27.31736 0 0 0 -8 19.31v4.69h-16v-4.69a27.31736 27.31736 0 0 1 8-19.31 27.3187 27.3187 0 0 0 8-19.31v-35.09z" fill="#f4c396"/><circle cx="280" cy="288" fill="#231f20" r="8"/><circle cx="312" cy="288" fill="#231f20" r="8"/><path d="m296 323.314a19.187 19.187 0 0 1 -13.65723-5.65722 8.00018 8.00018 0 0 1 11.31446-11.31348 3.31247 3.31247 0 0 0 4.68554 0 8.00018 8.00018 0 0 1 11.31446 11.31348 19.187 19.187 0 0 1 -13.65723 5.65722z" fill="#f4c396"/><path d="m304 384v40h-32l6.4-16 3.2-8 6.4-16z" fill="#e64042"/><path d="m304 393.38v22.62l-8 8h-24l6.4-16h10.97z" fill="#d3393b"/><path d="m351.18994 312h-15.18994v-16a38.63337 38.63337 0 0 0 -11.31006-27.31l-12.68994-12.69a77.26569 77.26569 0 0 0 -54.62988 22.63l-.87012.87a56.004 56.004 0 1 1 94.68994 32.5z" fill="#2f4054"/><path d="m333.65991 245.66-16 16-5.65991-5.66a76.59917 76.59917 0 0 0 -12.32007 1l22.66016-22.66z" fill="#231f20"/><path d="m336 296 4.68629-4.68629a11.31372 11.31372 0 0 1 8-3.31371 11.31369 11.31369 0 0 1 11.31371 11.3137 28.87838 28.87838 0 0 1 -1.48193 9.13209l-4.91152 14.73454a7.04865 7.04865 0 0 1 -6.68691 4.81967 7.0486 7.0486 0 0 1 -4.98414-2.0645l-13.9355-13.9355z" fill="#f6d0b1"/><path d="m304 384v16h-22.4l6.4-16z" fill="#d3393b"/><path d="m304 393.38v6.62h-6.63z" fill="#c12226"/><path d="m248 424v40h-56a40.0017 40.0017 0 0 1 40-40z" fill="#f6d0b1"/><path d="m344 440-24 24h-72v-40h48l24-24z" fill="#8ccee9"/></g></svg>